<svg width="1394" height="1716" viewBox="0 0 1394 1716" fill="none" xmlns="http://www.w3.org/2000/svg">
<path fill-rule="evenodd" clip-rule="evenodd" d="M953.278 1.46339C989.841 9.61939 1019.19 46.9364 1028.7 97.3574C1031.06 109.887 1031.08 142.784 1028.74 155.357C1022.92 186.553 1010.86 210.851 991.857 229.68C976.089 245.303 958.199 252.98 937.62 252.953C928.194 252.941 916.668 250.944 914.703 248.982C914.278 248.558 916.303 247.671 919.203 247.011C927.165 245.198 941.619 237.569 949.475 231.033C967.889 215.715 982.27 190.665 988.549 162.969C1000.78 109.026 985.217 52.7784 949.577 22.1074C942.404 15.9344 928.982 8.70145 920.136 6.24245C913.08 4.28045 913.395 3.67544 922.645 1.43544C930.596 -0.489561 944.581 -0.476607 953.278 1.46339ZM487.26 13.5175C497.378 16.4905 506.046 21.8934 515.048 30.8394C524.624 40.3554 530.105 48.1744 536.265 61.1074L540.432 69.8574H572.253C598.68 69.8574 604.569 70.1134 606.995 71.3674C612.806 74.3724 613.717 80.8754 609.058 86.0914L606.142 89.3574L576.221 89.6485L546.3 89.9404L547.788 97.1485C548.795 102.019 549.31 110.923 549.376 124.605L549.475 144.85L586.577 144.855C610.445 144.857 624.777 145.24 626.761 145.932C632.112 147.797 634.697 154.77 631.945 159.912C629.398 164.672 627.663 164.857 585.597 164.857H546.118L544.528 170.607C541.666 180.963 535.958 194.518 530.669 203.519C523.225 216.186 508.247 231.091 497.847 236.179C481.623 244.116 466.69 244.738 450.26 238.16C446.804 236.776 443.975 235.468 443.975 235.253C443.975 235.038 445.487 232.723 447.334 230.109C458.541 214.254 466.649 193.115 471.093 168.167C473.563 154.299 474.081 125.759 472.115 111.857C470.454 100.11 465.36 79.8845 461.794 70.8725C456.92 58.5555 449.084 44.4325 441.81 34.8515C438.051 29.8995 434.975 25.6155 434.975 25.3305C434.975 24.2075 447.499 16.8054 452.677 14.8684C463.838 10.6924 476.022 10.2165 487.26 13.5175ZM907.474 21.3524C947.341 28.4544 976.895 77.0464 974.685 131.857C973.341 165.189 962.399 192.538 942.479 212.357C933.487 221.303 926.632 225.744 915.81 229.636C909.439 231.927 906.964 232.267 896.975 232.221C886.929 232.175 884.527 231.815 877.975 229.379C864.643 224.422 854.198 216.708 844.639 204.761C817.917 171.363 811.636 117.768 829.352 74.3135C834.627 61.3745 841.264 51.4284 851.404 41.2644C863.624 29.0154 874.695 23.0154 888.949 20.9154C896.962 19.7354 898.615 19.7744 907.474 21.3524ZM422.158 40.8524C437.348 56.6114 448.278 78.8344 454.13 105.857C456.128 115.083 456.406 119.209 456.425 139.857C456.443 160.5 456.175 164.586 454.222 173.461C449.96 192.821 443.914 207.8 434.957 221.191C430.054 228.522 429.884 228.66 423.49 230.391C418.74 231.676 415.051 231.991 409.737 231.564C402.376 230.973 392.975 228.337 392.975 226.863C392.975 226.42 394.55 223.717 396.476 220.856C417.211 190.043 423.31 140.237 411.443 98.6344C406.505 81.3214 396.306 61.8714 386.443 50.9534C382.004 46.0404 382.293 45.4524 391.325 41.0064C398.954 37.2504 403.569 36.0904 411.41 35.9574C417.267 35.8584 417.406 35.9214 422.158 40.8524ZM1065.3 57.4014C1098.87 60.2324 1107.16 61.8245 1119.39 67.7885C1132.48 74.1775 1146.85 87.0105 1153.31 98.0805C1154.63 100.345 1156.45 102.003 1157.98 102.315C1159.35 102.598 1174.65 104.199 1191.98 105.873C1237.74 110.296 1257.63 112.611 1273.98 115.417C1315.23 122.497 1341.16 133.797 1359.04 152.495C1367.2 161.037 1371.12 166.745 1375.98 177.184C1383.51 193.359 1386.77 209.178 1387.57 233.357C1387.85 242.157 1389.41 377.382 1391.02 533.857C1393.98 821.064 1393.98 844.946 1390.96 886.857C1379.77 1042.51 1339.34 1167.04 1264.19 1277.36C1234.18 1321.41 1196.11 1365.82 1155.33 1404.34C1071.03 1483.99 975.539 1551.38 797.975 1656.54C745.688 1687.51 697.278 1715.86 696.685 1715.86C695.845 1715.86 603.951 1661.71 560.484 1635.61C430.701 1557.66 348.626 1500.99 278.72 1441.04C135.609 1318.32 54.1382 1183.63 19.1092 1011.86C5.88024 946.983 -0.0526481 881.49 0.000351839 800.903C0.0513518 723.759 6.06137 221.187 7.02037 213.857C10.8784 184.374 23.5994 159.857 43.0004 144.517C67.7143 124.974 102.567 115.273 170.975 108.896C191.886 106.947 190.417 107.413 194.116 101.557C199.016 93.7974 210.542 82.1874 218.637 76.8574C227.16 71.2444 235.754 67.6684 245.975 65.4824C253.047 63.9704 351.494 55.8485 362.678 55.8545L367.878 55.8574L373.678 62.7644C380.746 71.1854 385.046 78.1964 389.598 88.7254C406.012 126.691 402.43 178.335 381.222 209.48C374.397 219.502 379.644 218.321 321.418 222.933C260.173 227.785 252.435 227.788 238.11 222.969C228.604 219.771 219.439 214.974 212.824 209.736L209.172 206.844L195.565 208.844C148.176 215.808 129.752 226.506 120.299 252.548C114.628 268.172 114.831 260.24 114.99 460.357C115.181 700.46 116.343 839.114 118.41 868.357C129.005 1018.25 161.951 1127.86 225.411 1224.36C290.657 1323.57 383.227 1404.25 564.475 1519.88C586.097 1533.67 674.112 1588.84 690.32 1598.76L696.832 1602.75L755.653 1565.98C837.101 1515.06 869.548 1494.16 908.475 1467.52C970.721 1424.92 1012.4 1392.76 1053.97 1355.27C1193.48 1229.42 1259.14 1086.66 1274.45 875.857C1277.33 836.188 1277.88 790.034 1278.5 536.857C1279.06 308.526 1278.97 280.263 1277.57 271.065C1273.67 245.269 1263.68 230.096 1244.49 220.809C1230.24 213.908 1217.21 211.263 1160.73 203.798C1148.18 202.141 1143.98 201.237 1143.98 200.199C1143.98 199.433 1140.96 201.312 1137.23 204.401C1129.67 210.658 1115.55 218.026 1106.48 220.448C1094.56 223.628 1070.96 222.992 1025.85 218.277L1020.22 217.689L1023.71 212.523C1050.84 172.296 1055.47 107.585 1034.46 62.1165C1031.3 55.2865 1031.22 54.8574 1033.12 54.8574C1034.23 54.8574 1048.71 56.0024 1065.3 57.4014ZM879.37 71.9385C868.595 75.0645 863.411 92.3114 869.547 104.623C873.631 112.819 880.436 116.098 887.647 113.344C902.888 107.524 903.587 79.5774 888.66 72.8004C884.006 70.6874 883.76 70.6655 879.37 71.9385ZM902.353 142.098C897.404 146.443 895.024 151.99 894.997 159.241C894.967 167.4 896.788 172.67 901.145 177.027C912.278 188.16 927.342 178.21 927.286 159.761C927.249 147.602 920.286 138.857 910.642 138.857C906.884 138.857 905.371 139.449 902.353 142.098Z" fill="black"/>
<path fill-rule="evenodd" clip-rule="evenodd" d="M811.133 444.55C798.841 477.518 777.207 535.542 763.057 573.492C748.907 611.442 724.765 676.194 709.407 717.384C694.05 758.575 681.716 792.508 681.999 792.791C682.282 793.074 713.905 788.291 752.273 782.162C790.641 776.034 851.733 766.277 888.032 760.48C924.332 754.684 954.526 750.065 955.131 750.217C955.736 750.368 939.748 772.092 919.603 798.492C899.457 824.892 843.192 898.692 794.569 962.492C745.946 1026.29 696.197 1091.54 684.017 1107.49C671.836 1123.44 628.438 1180.37 587.576 1233.99C546.714 1287.62 512.846 1331.94 512.314 1332.49C511.782 1333.04 512.09 1331.69 512.997 1329.49C514.553 1325.72 617.082 1072.92 637.102 1023.49C642.226 1010.84 652.264 986.092 659.408 968.492C666.552 950.892 672.063 936.371 671.655 936.222C671.248 936.074 633.141 940.935 586.973 947.024C540.806 953.114 488.506 960.01 470.751 962.349C445.546 965.67 438.583 966.304 438.992 965.239C439.28 964.489 471.341 916.989 510.238 859.684C630.832 682.022 731.559 533.605 783.327 457.3C810.638 417.045 833.095 384.221 833.232 384.358C833.37 384.495 823.425 411.581 811.133 444.55Z" fill="#FFEC0A"/>
</svg>
