<svg width="2946" height="314" viewBox="0 0 2946 314" fill="none" xmlns="http://www.w3.org/2000/svg">
<path fill-rule="evenodd" clip-rule="evenodd" d="M1640.5 0.220965C1638.85 0.434965 1633.9 1.08198 1629.5 1.65798C1617.37 3.24598 1603.45 7.21491 1594 11.7859C1577.85 19.5949 1567.54 33.111 1562.45 53.178C1558.48 68.853 1557.77 82.8559 1558.28 136.098C1558.77 188.064 1559.19 193.244 1564.15 208.598C1572.9 235.699 1593.36 249.434 1633 254.81C1639.94 255.751 1660.14 256.098 1708 256.098C1765.84 256.098 1774.88 255.889 1785.27 254.311C1799.79 252.105 1812.18 248.591 1822 243.888C1836.52 236.939 1848.06 222.197 1852.37 205.098C1854.08 198.308 1856 182.192 1856 174.637V169.598H1840.63H1825.26L1824.56 180.848C1822.6 212.449 1814.42 222.9 1787.44 228.282C1780.85 229.598 1768.57 229.942 1715.13 230.31C1649.33 230.763 1632.92 230.187 1620.6 226.996C1602.86 222.398 1595.25 213.531 1591.36 192.927C1589.69 184.081 1589.5 177.447 1589.5 126.598C1589.5 75.8379 1589.68 69.2339 1591.31 61.5979C1594.66 45.8959 1599.96 37.6659 1609.98 32.6079C1622.43 26.3249 1642.68 24.642 1706 24.627C1754.63 24.615 1781.74 25.8459 1792.3 28.5459C1814.32 34.1799 1822.4 45.2619 1824.58 72.8479L1825.27 81.5979H1840.64H1856L1855.99 76.8479C1855.98 68.4299 1854.04 54.2879 1851.91 47.0979C1848.92 37.0079 1844.08 28.953 1836.8 21.961C1826.8 12.355 1813.34 6.51903 1791.79 2.43703C1781.04 0.400029 1777.25 0.286982 1712 0.0639825C1674.33 -0.0640175 1642.15 0.00596491 1640.5 0.220965ZM2730.5 0.220965C2728.85 0.434965 2723.9 1.08198 2719.5 1.65798C2707.37 3.24598 2693.45 7.21491 2684 11.7859C2668.55 19.2569 2657.94 32.6339 2653.06 50.8069C2648.87 66.4049 2648.5 72.7779 2648.5 129.098C2648.5 187.113 2648.86 192.25 2654.15 208.598C2662.93 235.784 2683.52 249.583 2723 254.729C2730.95 255.766 2749.27 256.098 2798.5 256.098C2869.27 256.098 2875.75 255.69 2896 249.958C2919.62 243.271 2934.79 229.697 2941.09 209.598C2943.46 202.036 2945.95 184.843 2945.98 175.848L2946 169.598H2930.64H2915.28L2914.59 180.848C2912.64 212.389 2904.41 222.903 2877.44 228.282C2870.85 229.598 2858.57 229.942 2805.13 230.31C2762.65 230.602 2736.66 230.378 2728.68 229.65C2696.77 226.738 2686.45 218.774 2681.3 193.098C2679.69 185.062 2679.5 178.049 2679.5 127.598C2679.5 77.0349 2679.69 70.1519 2681.31 62.0979C2684.54 46.0799 2689.45 38.276 2699.72 32.865C2712.3 26.23 2730.77 24.642 2795.5 24.627C2874.02 24.608 2891.34 26.963 2903.2 39.262C2910.01 46.331 2913.17 55.668 2914.57 72.856L2915.27 81.5979H2930.64H2946V76.322C2946 67.952 2944.14 54.7069 2941.89 47.0979C2938.78 36.5909 2934.52 29.4269 2927.12 22.2879C2916.64 12.1649 2904.12 6.70704 2881.5 2.39504C2871.09 0.410037 2866.84 0.285982 2802 0.0639825C2764.33 -0.0640175 2732.15 0.00596491 2730.5 0.220965ZM725 128.102V251.606L848.25 251.352L971.5 251.098L971.78 238.348L972.06 225.598H864.03H756V182.098V138.598H858.5H961V125.598V112.598H858.5H756V71.6018V30.607L863.75 30.3518L971.5 30.0979L971.78 17.3479L972.06 4.59792H848.53H725V128.102ZM1012.01 126.496C1012 193.54 1012.26 249.115 1012.6 249.996C1013.16 251.452 1023.49 251.598 1126.11 251.598H1239V238.598V225.598H1141.5H1044V115.098V4.59792H1028.02H1012.03L1012.01 126.496ZM1280 128.098V251.598H1403.5H1527V238.598V225.598H1419H1311V182.098V138.598H1413.5H1516V125.598V112.598H1413.5H1311V71.5979V30.5979H1419H1527V17.5979V4.59792H1403.5H1280V128.098ZM1897.22 17.3479L1897.5 30.0979L1958.75 30.356L2020 30.6128V141.106V251.598H2035.5H2051V141.098V30.5979H2112.5H2174V17.5979V4.59792H2035.47H1896.94L1897.22 17.3479ZM2226 128.098V251.598H2241.5H2257V202.524V153.45L2347.75 153.917C2407.38 154.224 2440.73 154.764 2445 155.491C2457.87 157.682 2465.15 160.481 2469.62 164.954C2476.71 172.049 2477.14 174.69 2477.74 215.848L2478.26 251.598H2493.75H2509.24L2508.72 217.348C2508.16 181.516 2507.46 174.945 2503.13 165.154C2498.79 155.338 2488.44 147.488 2476 144.561L2470.5 143.267L2476.27 141.95C2490.32 138.747 2500.77 130.901 2506.5 119.27C2511.61 108.889 2513.04 100.872 2513.69 79.0979C2514.53 50.9489 2512.63 39.4798 2505.35 28.8508C2496.3 15.6248 2476.24 8.64588 2438.6 5.63088C2430.89 5.01288 2385.57 4.59792 2325.85 4.59792H2226V128.098ZM2565 128.098V251.598H2580.5H2596V128.098V4.59792H2580.5H2565V128.098ZM2459 32.9258C2480.24 37.6358 2483.71 44.9109 2482.73 82.5979C2482.13 105.451 2480.96 110.634 2475.07 116.531C2470.89 120.705 2463.25 123.746 2452 125.71C2447.59 126.479 2415.16 126.985 2351.25 127.281L2257 127.718V79.1079V30.4978L2354.25 30.8799C2440.34 31.2189 2452.36 31.4538 2459 32.9258ZM90.845 61.7368C78.954 63.0998 64.305 67.172 55.26 71.626C46.795 75.796 36.453 84.3229 33.234 89.7869C31.515 92.7049 31.496 92.6138 31 79.4148L30.5 66.0979L15.25 65.822L0 65.5459V158.572V251.598H15.5H31V189.647C31 147.937 31.364 125.965 32.115 122.397C35.889 104.452 48.327 94.015 72 88.928C83.673 86.42 119.936 86.3598 130.746 88.8318C144.313 91.9338 152.962 97.7608 157.666 106.967C163.114 117.628 163.283 119.905 163.731 188.348L164.145 251.598H179.572H195L195.017 190.348C195.036 123.583 195.262 120.4 200.67 110.462C209.218 94.7569 231.725 86.5979 266.5 86.5979C288.017 86.5979 301.399 89.0829 311.04 94.8699C321.594 101.204 326.129 110.9 327.987 131.098C328.543 137.148 328.999 166.735 328.999 196.848L329 251.598H344.5H360L359.998 194.848C359.994 118.018 358.866 105.651 350.391 89.523C340.032 69.81 316.817 60.5979 277.5 60.5979C239.533 60.5979 209.081 70.46 193.687 87.742L188.299 93.7898L185.084 88.093C176.505 72.892 159.726 64.3889 132.869 61.6319C121.157 60.4309 101.822 60.4788 90.845 61.7368ZM380.729 66.3479C380.515 66.7599 402.201 108.498 428.92 159.098L477.5 251.098L482.648 251.598L487.795 252.098L483.736 260.422C474.672 279.011 463.985 284.444 431.75 286.848L416 288.023V300.81V313.598L418.75 313.589C427.547 313.561 450.619 311.308 458.411 309.717C478.96 305.519 495.019 295.842 503.51 282.541C506.069 278.533 612 68.311 612 67.241C612 66.862 603.875 66.676 593.944 66.825L575.888 67.0979L542.654 137.098C524.375 175.598 506.921 212.273 503.867 218.598L498.313 230.098L457.155 147.848L415.998 65.5979H398.558C388.966 65.5979 380.943 65.9359 380.729 66.3479Z" fill="white"/>
</svg>
