<svg width="1394" height="1716" viewBox="0 0 1394 1716" fill="none" xmlns="http://www.w3.org/2000/svg">
<path fill-rule="evenodd" clip-rule="evenodd" d="M922.645 1.43542C913.395 3.67542 913.079 4.28043 920.135 6.24243C943.241 12.6664 963.89 31.5384 977.327 58.5134C1009.95 123.996 988.35 214.038 933.475 241.333C928.525 243.795 922.102 246.35 919.202 247.011C916.302 247.671 914.277 248.558 914.702 248.982C916.667 250.944 928.194 252.941 937.62 252.953C958.199 252.98 976.089 245.303 991.857 229.68C1010.86 210.851 1022.92 186.553 1028.74 155.357C1031.08 142.784 1031.06 109.887 1028.7 97.3574C1019.19 46.9364 989.841 9.61941 953.278 1.46341C944.581 -0.476592 930.596 -0.489577 922.645 1.43542ZM463.322 11.9004C455.837 13.2264 448.038 16.3704 441.079 20.8684C437.722 23.0384 434.975 25.0464 434.975 25.3304C434.975 25.6154 438.051 29.8994 441.81 34.8514C449.084 44.4324 456.92 58.5554 461.794 70.8724C465.36 79.8844 470.453 100.11 472.114 111.857C474.08 125.759 473.562 154.299 471.092 168.167C466.648 193.115 458.541 214.254 447.334 230.109C445.487 232.723 443.975 235.038 443.975 235.253C443.975 235.468 446.803 236.776 450.259 238.16C466.689 244.738 481.622 244.116 497.846 236.179C508.246 231.091 523.225 216.186 530.669 203.519C535.958 194.518 541.666 180.963 544.528 170.607L546.117 164.857H585.596C627.662 164.857 629.398 164.672 631.945 159.912C634.697 154.77 632.111 147.797 626.76 145.932C624.776 145.24 610.444 144.856 586.576 144.854L549.475 144.85L549.376 124.604C549.31 110.922 548.795 102.019 547.788 97.1484L546.299 89.9404L576.22 89.6484L606.142 89.3574L609.058 86.0914C613.717 80.8754 612.806 74.3724 606.995 71.3674C604.569 70.1134 598.68 69.8574 572.253 69.8574H540.431L536.264 61.1074C530.104 48.1744 524.623 40.3554 515.047 30.8394C502.667 18.5364 490.473 12.6054 475.259 11.4864C471.528 11.2114 466.156 11.3984 463.322 11.9004ZM888.948 20.9154C874.694 23.0154 863.624 29.0154 851.404 41.2644C841.264 51.4284 834.627 61.3744 829.352 74.3134C811.636 117.768 817.916 171.363 844.638 204.761C854.197 216.708 864.643 224.422 877.975 229.379C884.527 231.815 886.929 232.175 896.975 232.221C906.964 232.267 909.439 231.927 915.81 229.636C926.632 225.744 933.487 221.303 942.479 212.357C962.399 192.538 973.341 165.189 974.685 131.857C975.918 101.269 967.336 71.6264 950.986 50.0034C939.405 34.6874 923.485 24.2044 907.474 21.3524C898.615 19.7744 896.961 19.7354 888.948 20.9154ZM401.56 36.9764C396.874 38.0754 385.464 43.5624 383.87 45.4844C382.984 46.5524 383.546 47.7464 386.443 50.9534C407.973 74.7854 420.581 118.217 417.025 156.308C414.624 182.033 407.461 204.532 396.476 220.856C394.55 223.717 392.975 226.42 392.975 226.863C392.975 228.337 402.376 230.973 409.737 231.564C415.051 231.991 418.739 231.676 423.489 230.391C429.883 228.66 430.054 228.522 434.957 221.191C443.914 207.8 449.959 192.821 454.221 173.461C456.174 164.586 456.442 160.5 456.424 139.857C456.405 119.209 456.127 115.083 454.129 105.857C448.277 78.8344 437.347 56.6114 422.157 40.8524C417.405 35.9214 417.266 35.8584 411.409 35.9574C408.145 36.0134 403.713 36.4714 401.56 36.9764ZM1034.46 62.1164C1055.47 107.585 1050.84 172.296 1023.71 212.523L1020.22 217.689L1025.85 218.277C1070.96 222.992 1094.56 223.627 1106.48 220.447C1115.55 218.025 1129.67 210.658 1137.23 204.401C1140.96 201.312 1143.98 199.433 1143.98 200.199C1143.98 201.237 1148.18 202.141 1160.73 203.798C1217.21 211.263 1230.24 213.908 1244.49 220.809C1263.68 230.096 1273.67 245.269 1277.57 271.065C1278.97 280.263 1279.06 308.526 1278.5 536.857C1277.88 790.034 1277.33 836.188 1274.45 875.857C1259.14 1086.66 1193.48 1229.42 1053.97 1355.27C1012.4 1392.76 970.721 1424.92 908.475 1467.52C869.548 1494.16 837.101 1515.06 755.653 1565.98L696.832 1602.75L690.32 1598.76C686.739 1596.57 662.359 1581.37 636.142 1564.98C494.357 1476.36 432.701 1433.88 369.225 1381.1C214.706 1252.61 142.615 1114.17 121.482 905.357C116.28 853.956 115.245 783.056 114.989 460.357C114.83 260.24 114.627 268.172 120.298 252.548C129.751 226.506 148.176 215.808 195.565 208.844L209.171 206.844L212.823 209.736C219.438 214.974 228.604 219.771 238.11 222.969C252.435 227.788 260.173 227.785 321.418 222.933C379.644 218.321 374.396 219.501 381.221 209.479C402.429 178.334 406.011 126.691 389.597 88.7254C385.045 78.1964 380.745 71.1854 373.677 62.7644L367.878 55.8574L362.677 55.8544C351.493 55.8484 253.047 63.9704 245.975 65.4824C235.754 67.6684 227.159 71.2444 218.636 76.8574C210.541 82.1874 199.015 93.7974 194.115 101.557C190.416 107.413 191.886 106.947 170.975 108.896C102.567 115.273 67.7144 124.974 43.0004 144.517C23.5994 159.857 10.8783 184.374 7.02031 213.857C6.06131 221.187 0.0513518 723.759 0.000351836 800.903C-0.0526482 881.49 5.8803 946.983 19.1093 1011.86C54.1383 1183.63 135.608 1318.32 278.719 1441.04C348.625 1500.99 430.701 1557.66 560.484 1635.61C603.951 1661.71 695.845 1715.86 696.685 1715.86C697.278 1715.86 745.688 1687.51 797.975 1656.54C954.514 1563.83 1047.51 1500.11 1123.28 1433.62C1181.12 1382.87 1226.88 1332.13 1264.19 1277.36C1339.34 1167.04 1379.77 1042.51 1390.96 886.857C1393.98 844.946 1393.98 821.064 1391.02 533.857C1389.41 377.382 1387.85 242.157 1387.57 233.357C1386.77 209.178 1383.51 193.359 1375.98 177.184C1371.12 166.745 1367.2 161.037 1359.04 152.495C1341.16 133.797 1315.23 122.497 1273.98 115.417C1257.63 112.611 1237.74 110.296 1191.98 105.873C1174.65 104.199 1159.35 102.598 1157.98 102.315C1156.45 102.003 1154.63 100.345 1153.31 98.0804C1143.88 81.9034 1122.9 66.7004 1103.39 61.8944C1097.01 60.3234 1042.43 54.8574 1033.12 54.8574C1031.22 54.8574 1031.3 55.2864 1034.46 62.1164ZM888.659 72.8004C896.651 76.4294 901.201 87.6344 898.996 98.2564C895.266 116.225 877.266 120.116 869.546 104.623C863.41 92.3114 868.595 75.0644 879.37 71.9384C883.76 70.6654 884.005 70.6874 888.659 72.8004ZM918.434 140.832C928.841 147.263 930.418 167.52 921.257 177.084C915.46 183.136 907.231 183.113 901.145 177.027C896.788 172.67 894.967 167.4 894.997 159.241C895.024 151.99 897.404 146.443 902.353 142.098C905.371 139.449 906.884 138.857 910.642 138.857C913.474 138.857 916.466 139.615 918.434 140.832Z" fill="white"/>
<path fill-rule="evenodd" clip-rule="evenodd" d="M783.327 456.942C731.559 533.247 630.832 681.664 510.238 859.326C471.341 916.631 439.28 964.131 438.992 964.881C438.583 965.946 445.546 965.312 470.751 961.991C488.506 959.652 540.806 952.756 586.973 946.666C633.141 940.577 671.248 935.716 671.655 935.864C672.063 936.013 666.552 950.534 659.408 968.134C652.264 985.734 642.226 1010.48 637.102 1023.13C617.082 1072.56 514.553 1325.36 512.997 1329.13C512.09 1331.33 511.782 1332.68 512.314 1332.13C512.846 1331.58 546.714 1287.26 587.576 1233.63C628.438 1180.01 671.836 1123.08 684.017 1107.13C696.197 1091.18 745.946 1025.93 794.569 962.134C843.192 898.334 899.457 824.534 919.603 798.134C939.748 771.734 955.736 750.01 955.131 749.859C954.526 749.707 924.332 754.326 888.032 760.122C851.733 765.919 790.641 775.676 752.273 781.804C713.905 787.933 682.282 792.716 681.999 792.433C681.716 792.15 694.05 758.217 709.407 717.026C724.765 675.836 748.907 611.084 763.057 573.134C777.207 535.184 798.841 477.16 811.133 444.192C823.425 411.223 833.37 384.137 833.232 384C833.095 383.863 810.638 416.687 783.327 456.942Z" fill="#FFEC0A"/>
</svg>
